<?xml version="1.0" standalone="no"?>
<!DOCTYPE svg PUBLIC "-//W3C//DTD SVG 20010904//EN"
 "http://www.w3.org/TR/2001/REC-SVG-20010904/DTD/svg10.dtd">
<svg version="1.0" xmlns="http://www.w3.org/2000/svg"
 width="225.000000pt" height="225.000000pt" viewBox="0 0 225.000000 225.000000"
 preserveAspectRatio="xMidYMid meet">
<metadata>
Created by potrace 1.14, written by Peter Selinger 2001-2017
</metadata>
<g transform="translate(0.000000,225.000000) scale(0.100000,-0.100000)"
fill="#000000" stroke="none">
<path d="M0 2086 l0 -163 88 -5 c62 -4 106 -13 154 -32 70 -28 76 -28 118 8
16 14 20 15 11 4 -16 -22 1 -24 19 -3 7 8 9 15 5 15 -13 0 24 37 80 80 34 26
58 38 69 34 9 -3 16 -9 16 -13 0 -3 -52 -51 -115 -105 -97 -83 -114 -102 -109
-121 3 -13 0 -28 -8 -36 -8 -7 -12 -23 -10 -36 5 -24 -7 -30 -24 -13 -7 7 -24
3 -53 -12 l-42 -23 1 -105 c2 -165 4 -157 -21 -134 -18 16 -20 26 -15 75 3 31
1 60 -4 65 -5 5 -10 25 -12 44 -2 26 -8 35 -20 34 -10 0 -43 -1 -73 -2 l-55
-2 0 -297 0 -297 25 50 c13 27 46 74 73 104 27 30 48 63 46 73 -1 9 2 15 7 11
5 -3 7 -10 4 -15 -12 -18 8 -9 44 22 20 16 47 40 61 51 14 12 27 20 30 19 2
-2 6 2 8 8 2 7 -4 8 -15 4 -14 -5 -13 0 7 21 26 28 27 35 29 146 2 73 8 103
21 95 4 -3 11 2 14 10 5 14 9 14 42 0 47 -20 66 -19 62 2 -4 24 30 29 48 6 11
-14 13 -15 8 -2 -7 21 39 65 86 82 21 7 85 12 160 12 115 -1 129 -3 170 -26
25 -14 44 -30 43 -35 -1 -5 101 -10 250 -10 139 -1 299 -2 357 -2 115 -1 120
1 120 60 0 20 3 43 6 52 18 47 146 82 242 67 l54 -8 124 71 124 71 0 133 0
132 -424 0 -424 0 -7 -114 c-7 -111 -25 -183 -25 -102 0 22 -3 37 -6 33 -3 -3
-6 -53 -6 -111 1 -59 -3 -106 -8 -106 -10 0 -6 225 6 338 4 38 3 62 -3 62 -6
0 -13 -50 -17 -111 -10 -166 -18 -229 -28 -223 -5 3 -7 24 -4 47 3 23 8 97 12
165 l6 122 -36 0 -36 0 0 -65 c0 -37 -4 -65 -10 -65 -6 0 -10 28 -10 65 0 36
-4 65 -9 65 -7 0 -11 -51 -27 -422 -5 -108 -10 -148 -19 -148 -19 0 -22 57
-14 250 13 290 12 320 -9 320 -16 0 -19 -25 -35 -272 -10 -150 -22 -277 -26
-281 -4 -4 -11 63 -16 150 -11 251 -11 248 2 246 10 -2 13 18 13 77 0 73 -2
80 -20 80 -17 0 -19 -8 -22 -77 -2 -50 -7 -78 -15 -81 -10 -3 -13 17 -13 77
l0 81 -510 0 -510 0 0 -164z m897 37 c-3 -10 -5 -2 -5 17 0 19 2 27 5 18 2
-10 2 -26 0 -35z m-20 -90 c-3 -10 -5 -2 -5 17 0 19 2 27 5 18 2 -10 2 -26 0
-35z m612 -37 c-9 -8 -10 -7 -5 7 3 10 7 24 7 30 1 7 3 4 6 -7 3 -10 -1 -23
-8 -30z m-248 -88 c-6 -27 -11 -70 -11 -95 0 -26 -3 -43 -7 -39 -8 7 -6 76 4
176 6 59 7 62 16 36 7 -20 6 -45 -2 -78z m180 42 c-9 -23 -10 -23 -10 11 -1
20 2 39 7 43 11 12 14 -27 3 -54z m129 -26 c-6 -27 -17 -55 -25 -64 -7 -8 -16
-37 -20 -65 -4 -27 -11 -59 -16 -70 -8 -20 -8 -20 -8 1 -2 41 21 139 34 146 7
5 18 31 25 58 7 28 14 49 16 47 3 -2 0 -26 -6 -53z m-503 -101 c-2 -21 -4 -4
-4 37 0 41 2 58 4 38 2 -21 2 -55 0 -75z m214 -120 c-8 -15 -10 -10 -11 22 0
22 4 51 8 65 6 20 8 16 10 -22 2 -26 -2 -56 -7 -65z m-1004 -348 c0 -8 -4 -12
-9 -9 -5 3 -6 10 -3 15 9 13 12 11 12 -6z"/>
<path d="M1373 2135 c0 -33 2 -45 4 -27 2 18 2 45 0 60 -2 15 -4 0 -4 -33z"/>
<path d="M475 1979 c-27 -22 -57 -47 -65 -56 -32 -33 24 6 75 51 62 56 57 59
-10 5z"/>
<path d="M2185 1933 c-33 -19 -63 -40 -67 -47 -4 -6 -8 -7 -8 -1 0 6 -5 2 -11
-8 -6 -9 -15 -14 -21 -11 -7 4 -8 2 -4 -4 4 -7 22 -2 54 17 26 15 64 38 85 51
20 12 37 26 37 31 0 12 4 13 -65 -28z"/>
<path d="M2192 1900 c-24 -15 -39 -30 -35 -32 4 -3 2 -3 -5 -1 -14 3 -71 -32
-84 -51 -4 -6 -4 -14 -1 -20 3 -5 1 -6 -5 -2 -15 9 -49 -10 -86 -46 l-29 -29
26 6 c21 6 25 3 23 -11 -2 -10 -11 -23 -22 -28 -10 -6 -21 -14 -24 -17 -3 -3
-12 -9 -20 -12 -8 -3 11 -6 43 -6 105 -2 178 51 147 108 -6 12 -7 21 -3 21 4
1 -2 6 -14 13 l-23 12 23 14 c13 8 17 8 11 2 -8 -9 -4 -20 17 -41 39 -38 38
-72 -3 -104 -44 -32 -98 -46 -186 -46 -77 0 -182 28 -216 58 -18 16 -18 14
-15 -65 3 -67 8 -86 26 -105 12 -13 21 -27 20 -33 -1 -5 25 -20 58 -32 33 -11
59 -26 58 -32 -2 -6 3 -8 10 -5 23 9 67 -14 61 -31 -3 -8 -2 -15 4 -15 6 0 12
5 14 11 2 6 11 7 22 3 19 -7 19 -8 0 -15 -17 -7 -17 -8 -1 -8 9 -1 17 -5 17
-10 0 -5 12 -16 26 -26 21 -14 28 -14 42 -3 15 11 15 11 5 -3 -11 -13 -9 -19
7 -34 18 -17 20 -17 14 -2 -3 9 -2 17 4 17 6 0 9 -8 7 -17 -1 -10 14 -36 35
-58 21 -22 55 -67 74 -100 l37 -60 -3 75 c-3 72 -4 75 -27 72 -16 -3 -22 1
-19 10 3 7 14 14 27 16 21 3 21 7 18 102 -4 111 -9 119 -94 161 -24 12 -43 23
-43 25 0 3 9 22 20 44 11 22 20 46 20 54 0 12 5 13 29 5 17 -6 35 -17 42 -25
16 -20 29 -17 29 6 0 20 -23 36 -69 51 -21 6 -17 7 22 8 l47 1 0 130 c0 72 -3
130 -7 129 -5 0 -27 -13 -51 -29z m-156 -125 c-11 -8 -25 -15 -30 -15 -6 1 0
7 14 15 32 19 40 18 16 0z m201 -509 c4 -4 -3 -9 -15 -13 -12 -3 -22 -9 -22
-14 0 -16 -15 -9 -29 12 -11 19 -11 21 3 16 9 -4 16 -3 16 2 0 9 37 8 47 -3z"/>
<path d="M0 1858 c0 -54 1 -56 33 -63 17 -5 44 -7 60 -6 16 1 29 -3 33 -12 3
-8 20 -14 42 -15 30 -1 45 6 81 40 43 39 44 41 26 55 -31 22 -114 43 -197 50
l-78 6 0 -55z"/>
<path d="M334 1858 l-19 -23 23 19 c21 18 27 26 19 26 -2 0 -12 -10 -23 -22z"/>
<path d="M1800 1828 c-45 -12 -80 -45 -80 -74 0 -23 51 -74 74 -74 20 0 49 37
36 45 -18 11 8 34 77 67 35 17 63 35 63 40 0 11 -127 9 -170 -4z"/>
<path d="M296 1764 c-4 -9 -13 -14 -22 -10 -9 3 -12 2 -9 -5 4 -5 1 -18 -7
-27 -7 -9 3 -5 21 9 35 26 51 49 33 49 -5 0 -13 -7 -16 -16z"/>
<path d="M715 1730 c-74 -9 -142 -27 -150 -40 -9 -14 2 -12 65 10 59 21 165
27 175 10 3 -5 15 -10 26 -10 11 0 19 -7 19 -16 0 -8 4 -13 9 -10 5 4 11 0 14
-6 3 -10 9 -9 21 3 25 23 10 48 -32 54 -71 12 -87 12 -147 5z"/>
<path d="M295 1720 c-3 -5 -1 -10 4 -10 6 0 11 5 11 10 0 6 -2 10 -4 10 -3 0
-8 -4 -11 -10z"/>
<path d="M555 1660 c3 -5 8 -10 11 -10 2 0 4 5 4 10 0 6 -5 10 -11 10 -5 0 -7
-4 -4 -10z"/>
<path d="M552 1634 c10 -10 20 -15 24 -12 3 4 -5 12 -18 18 -22 12 -22 12 -6
-6z"/>
<path d="M820 1620 c-9 -6 -10 -10 -3 -10 6 0 15 5 18 10 8 12 4 12 -15 0z"/>
<path d="M370 1605 c0 -10 9 -15 28 -14 17 1 20 3 9 6 -9 2 -15 9 -12 14 4 5
-1 9 -9 9 -9 0 -16 -7 -16 -15z"/>
<path d="M440 1616 c0 -2 7 -7 16 -10 8 -3 12 -2 9 4 -6 10 -25 14 -25 6z"/>
<path d="M530 1614 c0 -2 11 -21 23 -42 28 -44 25 -61 -8 -54 -14 2 -31 -1
-39 -7 -7 -6 -22 -8 -31 -4 -13 4 -16 3 -11 -5 4 -7 1 -12 -9 -12 -9 0 -31
-11 -49 -25 -18 -14 -41 -25 -51 -25 -14 0 -16 -3 -8 -11 9 -9 22 -9 50 -1 21
6 70 20 108 31 57 17 205 40 365 57 48 5 70 16 70 35 0 11 5 19 10 19 6 0 10
7 10 15 0 18 2 18 -50 0 -99 -35 -275 -27 -347 15 -18 11 -33 17 -33 14z"/>
<path d="M717 1610 c15 -14 63 -21 63 -10 0 6 5 8 10 5 6 -3 10 -3 10 2 0 4
-20 8 -45 9 -25 1 -42 -2 -38 -6z"/>
<path d="M1158 1486 c-9 -7 -16 -22 -15 -34 1 -16 4 -18 14 -10 7 6 13 16 13
23 0 8 5 15 12 17 7 3 8 7 2 10 -5 4 -17 1 -26 -6z"/>
<path d="M1183 1448 c-20 -26 -23 -37 -12 -44 7 -4 9 -3 5 4 -4 7 5 9 29 5 38
-6 45 5 19 31 -19 19 -28 20 -41 4z"/>
<path d="M610 1443 c5 -2 8 -9 4 -14 -3 -5 0 -9 6 -9 15 0 7 23 -8 26 -7 1 -8
0 -2 -3z"/>
<path d="M512 1414 c10 -10 20 -16 22 -13 3 3 -5 11 -17 18 -21 13 -21 12 -5
-5z"/>
<path d="M1090 1420 c0 -5 7 -10 16 -10 8 0 12 5 9 10 -3 6 -10 10 -16 10 -5
0 -9 -4 -9 -10z"/>
<path d="M1405 1391 c-10 -17 12 -21 25 -6 10 12 10 15 -3 15 -9 0 -18 -4 -22
-9z"/>
<path d="M550 1380 c-8 -5 -10 -10 -5 -10 6 0 17 5 25 10 8 5 11 10 5 10 -5 0
-17 -5 -25 -10z"/>
<path d="M886 1381 c-3 -5 1 -11 9 -15 9 -3 15 0 15 9 0 16 -16 20 -24 6z"/>
<path d="M1066 1373 c-6 -14 -5 -15 5 -6 7 7 10 15 7 18 -3 3 -9 -2 -12 -12z"/>
<path d="M1108 1383 c7 -3 16 -2 19 1 4 3 -2 6 -13 5 -11 0 -14 -3 -6 -6z"/>
<path d="M1720 1380 c0 -6 5 -20 11 -31 8 -16 14 -18 24 -9 27 22 115 -25 115
-62 0 -15 31 -35 64 -40 11 -2 25 -19 35 -44 19 -48 38 -74 56 -74 21 0 36
-27 40 -72 3 -40 5 -43 36 -48 44 -6 50 -37 15 -75 -15 -16 -26 -23 -26 -18 0
15 -43 24 -54 13 -15 -15 -39 -12 -33 3 3 7 -2 21 -9 32 -13 18 -14 17 -12
-15 1 -19 0 -42 -3 -50 -3 -12 4 -14 31 -12 l35 3 -24 -21 c-13 -11 -32 -20
-43 -20 -11 0 -29 -10 -40 -22 l-19 -23 4 27 c3 19 0 25 -10 21 -7 -3 -13 -10
-13 -16 0 -7 -4 -7 -12 1 -27 27 -79 11 -84 -26 -5 -29 -14 -24 -14 7 0 27 -3
31 -22 26 -13 -2 -51 -7 -86 -9 -39 -2 -70 -10 -81 -20 -10 -9 -31 -16 -48
-16 -17 0 -38 -8 -48 -20 -22 -24 -31 -19 -15 9 8 17 8 21 -3 21 -20 0 -40 27
-31 41 5 9 10 6 15 -9 12 -31 57 -30 64 1 4 13 13 24 21 24 9 0 12 -7 9 -18
-3 -9 -1 -20 4 -24 7 -3 8 0 5 9 -3 9 -2 16 3 16 5 0 8 15 6 33 l-4 32 14 -30
c8 -16 13 -33 11 -37 -4 -5 48 6 86 20 8 3 19 4 24 3 5 -1 16 1 24 4 12 4 11
10 -8 30 -13 14 -20 28 -16 32 4 4 11 1 17 -7 8 -13 10 -13 19 0 6 10 10 11
10 3 0 -23 26 -14 38 12 7 14 12 28 12 30 0 10 -19 4 -34 -10 -9 -9 -17 -11
-21 -5 -10 17 3 27 35 28 28 1 30 -2 30 -34 0 -31 2 -34 19 -25 10 6 22 22 25
37 7 25 8 26 21 8 16 -23 22 -12 27 53 4 46 3 46 -21 6 -14 -22 -24 -27 -71
-29 -46 -2 -58 -7 -77 -31 -21 -26 -24 -27 -63 -17 -32 9 -40 9 -40 -2 0 -7 9
-16 20 -19 24 -8 25 -18 4 -39 -18 -19 -54 -21 -54 -4 0 6 3 8 6 5 8 -8 44 10
44 22 0 16 -47 30 -59 18 -8 -8 -11 -8 -11 1 0 6 16 27 35 47 l36 35 -26 12
c-21 9 -23 14 -12 26 10 13 9 14 -10 3 -13 -6 -23 -16 -23 -22 0 -6 4 -8 9 -4
6 3 15 -4 22 -16 11 -21 10 -22 -20 -16 -24 5 -31 3 -31 -9 0 -8 -7 -17 -15
-20 -8 -4 -15 -14 -15 -23 0 -10 -6 -25 -12 -34 -11 -15 -13 -11 -12 26 0 24
4 48 7 54 4 7 3 14 -3 18 -5 3 -11 -4 -12 -17 0 -13 -2 -29 -2 -36 -2 -19 -45
-40 -68 -34 -10 2 -18 0 -18 -6 0 -20 -33 -21 -60 -2 -25 18 -30 19 -56 5 -26
-13 -30 -13 -51 7 -22 21 -23 21 -24 2 0 -10 -3 -13 -6 -6 -2 6 -9 12 -14 12
-16 0 11 -51 41 -77 36 -30 32 -43 -5 -19 -14 10 -25 12 -25 6 0 -13 -38 -4
-60 15 -8 7 -21 10 -29 7 -9 -3 -11 0 -6 9 12 19 15 58 5 64 -5 3 -13 -2 -18
-12 -8 -13 -6 -21 6 -30 14 -11 14 -13 2 -11 -8 2 -18 7 -21 11 -7 9 -49 -13
-49 -25 0 -5 9 -8 19 -8 11 0 23 -5 26 -10 8 -13 -6 -13 -39 0 -38 14 -33 46
5 42 4 -1 15 9 25 21 10 12 12 16 4 10 -19 -18 -55 -16 -70 2 -7 8 -23 15 -36
15 -15 0 -24 6 -24 15 0 20 49 20 78 -1 26 -18 52 -12 52 11 0 9 4 14 9 11 5
-4 11 0 14 6 3 10 7 10 19 0 9 -7 23 -10 32 -6 12 4 16 0 16 -15 0 -18 4 -20
31 -14 17 3 40 0 54 -7 30 -16 59 -6 52 18 -2 9 -6 24 -8 32 -5 17 -48 42 -63
36 -7 -3 -6 -5 2 -5 18 -1 5 -21 -14 -21 -8 0 -14 7 -14 16 0 13 -7 15 -34 10
-43 -8 -65 0 -59 23 3 11 -2 21 -11 24 -23 9 -20 -15 5 -47 11 -14 16 -26 11
-26 -12 0 -43 35 -37 42 3 3 -1 11 -10 18 -12 10 -18 10 -30 0 -18 -15 -99 -5
-132 16 -21 13 -23 13 -23 -4 0 -13 7 -18 21 -18 12 1 24 -5 27 -12 2 -9 -3
-12 -14 -10 -14 2 -20 -4 -22 -21 -4 -25 3 -25 51 -6 10 4 17 3 17 -5 0 -6 -9
-14 -20 -17 -13 -3 -20 -14 -20 -29 0 -28 -31 -49 -48 -32 -7 7 -12 21 -11 32
0 20 1 20 9 -1 6 -15 15 -21 25 -17 16 7 21 24 6 24 -5 0 -11 9 -14 20 -4 16
-11 19 -34 14 -37 -7 -57 14 -62 69 -1 4 -10 7 -21 7 -11 0 -20 5 -20 10 0 21
43 9 70 -20 34 -36 40 -37 40 -5 0 15 -6 25 -15 25 -7 0 -18 7 -23 17 -8 13
-18 15 -63 8 -30 -4 -64 -7 -77 -7 -16 0 -22 -5 -19 -17 2 -9 9 -15 15 -14 15
4 15 1 -2 -32 l-15 -28 -8 33 c-10 38 -28 49 -37 23 -3 -10 -9 -23 -12 -30 -3
-7 2 -10 15 -6 12 3 21 1 21 -5 0 -10 -32 -22 -62 -22 -10 0 -18 7 -18 15 0
24 -20 18 -51 -16 -16 -17 -26 -24 -23 -15 5 14 3 15 -21 6 -15 -6 -31 -8 -36
-5 -5 4 -6 -1 -3 -10 4 -10 13 -13 24 -10 10 3 21 1 24 -4 4 -5 -3 -12 -14
-16 -11 -3 -20 -11 -20 -16 0 -19 -19 -8 -22 13 -4 29 -57 48 -70 24 -12 -21
-28 -21 -28 0 0 14 -3 14 -15 4 -8 -7 -15 -9 -15 -5 0 4 -7 2 -15 -5 -11 -9
-15 -9 -15 -1 0 7 -5 9 -10 6 -6 -4 -8 -11 -5 -16 8 -13 -7 -34 -24 -34 -10 0
-15 -13 -17 -41 -2 -40 -1 -40 30 -37 l31 4 -28 -16 c-36 -20 -57 -13 -57 19
0 14 -4 28 -10 31 -5 3 -10 19 -10 36 0 16 5 29 10 29 6 0 10 10 10 23 0 15 9
29 25 37 14 7 25 20 25 29 0 12 -2 11 -13 -3 -11 -16 -15 -16 -25 -3 -16 19
-6 63 18 80 10 7 15 19 11 29 -10 29 -53 -1 -81 -57 -18 -38 -24 -64 -24 -115
1 -82 34 -150 112 -233 66 -69 211 -161 238 -150 12 4 15 3 10 -5 -7 -11 13
-17 38 -13 5 1 16 -5 25 -13 23 -21 70 -37 118 -40 40 -3 42 -3 41 27 -1 31
30 67 57 67 7 0 15 7 19 15 3 8 13 14 23 14 16 -1 16 -2 1 -6 -13 -3 -16 -12
-12 -40 4 -35 4 -36 -15 -19 -15 14 -24 15 -40 6 -12 -6 -21 -18 -20 -28 0
-10 3 -12 6 -4 2 6 9 12 14 12 6 0 8 -4 4 -9 -3 -5 -1 -13 5 -16 8 -5 8 -11 0
-20 -9 -11 -4 -16 27 -24 95 -25 413 -50 413 -32 0 7 26 11 76 11 47 0 73 -4
69 -10 -3 -5 -19 -10 -36 -10 -21 0 -29 -5 -29 -17 -1 -17 -1 -17 -11 0 -8 13
-14 15 -29 7 -25 -13 -16 -37 13 -34 12 1 45 3 72 3 28 1 56 5 63 9 16 11 5
42 -16 42 -36 0 1 10 133 34 156 29 222 48 343 99 108 46 172 88 226 148 66
73 81 111 81 204 0 71 -4 89 -32 146 -54 110 -149 192 -318 276 -57 29 -85 36
-85 23z m-706 -355 c6 -18 46 -20 46 -3 0 6 2 9 5 6 11 -11 -8 -38 -28 -38
-21 0 -57 26 -57 42 0 14 28 9 34 -7z m-205 -8 c6 -8 8 -17 4 -20 -3 -4 1 -7
10 -7 10 0 17 -7 17 -16 0 -14 -3 -14 -15 -4 -9 7 -17 11 -18 9 -1 -2 -9 -12
-17 -22 -13 -17 -12 -19 10 -17 14 1 28 2 33 1 4 -1 10 -1 15 -2 13 -1 32 -21
32 -33 0 -6 -4 -5 -9 3 -12 18 -42 7 -35 -13 3 -9 26 -18 52 -22 58 -10 74 -7
90 14 6 9 12 11 12 5 0 -7 -5 -15 -10 -18 -6 -4 -8 -10 -5 -15 3 -5 -14 -12
-38 -15 -53 -8 -116 15 -124 45 -5 20 -35 26 -67 14 -27 -10 -18 -24 17 -24
38 0 62 -13 53 -29 -4 -6 -11 -9 -16 -6 -4 3 -22 -9 -40 -25 -33 -30 -64 -38
-75 -20 -5 8 -11 8 -20 0 -10 -8 -17 -6 -28 10 -12 18 -15 18 -20 5 -9 -22
-27 -19 -27 5 0 11 -7 20 -15 20 -9 0 -12 -6 -9 -15 5 -11 2 -13 -11 -9 -12 5
-15 13 -9 33 4 14 8 37 9 51 4 44 7 46 14 10 4 -19 3 -41 -2 -47 -7 -9 -5 -13
6 -13 19 0 32 31 16 40 -20 13 -6 55 20 60 13 3 26 11 29 19 3 9 0 11 -8 6 -9
-6 -11 -4 -6 4 5 7 10 10 13 8 2 -3 20 1 38 9 41 17 45 17 45 4 0 -5 -10 -11
-22 -11 -17 -1 -19 -2 -5 -6 20 -5 23 -19 5 -26 -7 -2 4 -8 24 -12 33 -6 41
-4 57 16 20 24 20 24 -5 35 -19 8 -21 13 -12 22 16 16 33 15 47 -1z m775 -72
c-9 -14 -19 -23 -22 -20 -5 4 26 45 35 45 2 0 -4 -11 -13 -25z m-1187 -21 l38
6 -32 -14 c-17 -8 -40 -12 -51 -9 -13 3 -24 -4 -36 -22 -21 -32 -33 -27 -15 6
20 38 33 48 46 37 7 -6 30 -7 50 -4z m123 -15 c0 -20 -15 -26 -24 -10 -8 13 4
42 15 35 5 -3 9 -14 9 -25z m23 6 c-3 -9 -8 -14 -10 -11 -3 3 -2 9 2 15 9 16
15 13 8 -4z m1547 -43 c0 -9 -9 -30 -19 -46 -18 -27 -45 -35 -96 -27 -3 1 3
11 14 22 12 13 26 19 36 16 20 -8 58 29 51 49 -3 9 -1 12 4 9 6 -3 10 -14 10
-23z m-786 2 c14 -14 14 -18 -1 -47 -10 -18 -17 -36 -18 -42 0 -13 -47 -7 -60
7 -7 8 -5 9 6 5 9 -3 27 1 39 10 18 13 21 21 15 49 -7 38 -3 41 19 18z m806
-24 c0 -31 -58 -90 -89 -90 -26 1 -26 1 6 15 18 8 41 30 55 54 13 23 24 41 26
41 1 0 2 -9 2 -20z m-1080 -33 c0 -16 -33 -2 -36 15 -2 14 1 15 17 5 10 -6 19
-16 19 -20z m-90 3 c0 -5 -7 -7 -15 -4 -8 4 -15 8 -15 10 0 2 7 4 15 4 8 0 15
-4 15 -10z m405 0 c3 -5 2 -10 -4 -10 -5 0 -13 5 -16 10 -3 6 -2 10 4 10 5 0
13 -4 16 -10z m-524 -64 c-5 -22 -6 -36 0 -36 5 0 9 5 9 10 0 6 5 10 10 10 7
0 7 -6 0 -20 -14 -26 -40 -26 -40 1 l0 20 -30 -21 c-31 -22 -60 -24 -67 -3 -3
7 4 11 14 10 36 -2 83 24 83 47 0 28 23 55 28 32 2 -8 -1 -31 -7 -50z m339 54
c11 -8 8 -9 -12 -4 -27 6 -50 -10 -74 -51 -6 -11 -15 -15 -22 -11 -14 9 -16
56 -2 56 6 0 10 -10 10 -22 0 -21 2 -20 26 10 26 33 48 39 74 22z m-175 -23
c7 -6 0 -7 -20 -3 l-30 7 30 -25 c17 -13 28 -26 25 -28 -30 -25 -70 -47 -70
-39 0 6 11 18 25 27 20 13 23 19 14 30 -13 16 -49 19 -49 5 0 -16 -40 -23 -55
-11 -8 7 -15 19 -15 28 0 12 5 11 20 -6 27 -28 29 -28 41 8 10 26 14 29 42 23
18 -3 37 -10 42 -16z m688 -1 c-3 -14 -13 -31 -22 -39 -26 -23 -127 -91 -113
-76 6 7 12 21 12 31 0 11 5 15 15 12 8 -4 15 -1 15 5 0 6 3 10 8 10 21 -4 32
4 57 41 15 22 29 40 30 40 1 0 0 -11 -2 -24z m203 -2 c-9 -9 -20 -13 -24 -9
-4 3 2 13 12 21 25 18 33 10 12 -12z m-1283 -1 c3 -5 -1 -14 -9 -21 -8 -7 -14
-8 -14 -2 0 5 -7 10 -16 10 -8 0 -12 5 -9 10 7 12 42 13 48 3z m1142 -10 c-17
-46 -17 -104 1 -124 9 -10 15 -22 11 -25 -3 -3 -11 4 -17 16 -10 18 -14 20
-21 9 -6 -9 -7 6 -3 39 6 44 4 52 -10 52 -25 0 -19 17 12 33 36 20 35 20 27 0z
m-331 -18 c5 -15 -47 -40 -63 -30 -6 3 -27 1 -46 -6 -30 -11 -37 -11 -51 2
-13 14 -12 15 15 11 21 -3 39 3 61 20 33 26 74 27 84 3z m531 4 c0 -8 -12 -15
-27 -17 -32 -4 -36 5 -10 24 20 16 37 13 37 -7z m-920 -27 c-13 -14 -16 -14
-13 -2 4 21 22 40 27 28 2 -5 -4 -17 -14 -26z m452 -2 c30 0 26 -24 -5 -28
-15 -2 -25 5 -36 26 -8 16 -12 33 -8 36 4 4 11 -2 16 -13 5 -13 18 -21 33 -21z
m-337 0 c-8 -5 -22 -10 -30 -10 -13 0 -13 1 0 10 8 5 22 10 30 10 13 0 13 -1
0 -10z m50 -20 c0 -4 18 -15 41 -25 33 -15 46 -17 70 -8 23 9 29 9 26 0 -2 -6
-18 -16 -36 -21 -25 -7 -39 -5 -62 8 -17 10 -38 15 -49 11 -11 -4 -20 -2 -20
4 0 6 5 11 12 11 13 0 2 14 -13 16 -22 3 -23 5 -10 13 15 10 41 4 41 -9z m230
16 c0 -3 -4 -8 -10 -11 -5 -3 -10 -1 -10 4 0 6 5 11 10 11 6 0 10 -2 10 -4z
m270 -10 c0 -8 -13 -16 -30 -18 -19 -3 -29 -1 -27 6 2 6 11 10 20 8 8 -1 18 2
22 8 9 14 15 13 15 -4z m157 -64 c17 -3 20 1 16 17 -3 12 -1 21 6 21 6 0 11
-7 11 -16 0 -10 7 -14 18 -12 9 2 16 10 14 17 -3 16 20 9 26 -7 4 -14 -55 -45
-74 -38 -7 3 -16 0 -20 -6 -4 -7 -3 -8 4 -4 7 4 12 2 12 -3 0 -9 -10 -12 -35
-11 -3 1 -13 -7 -22 -15 -9 -9 -26 -23 -39 -32 -21 -13 -25 -13 -46 1 l-22 16
27 0 c16 0 43 10 61 23 29 19 32 25 24 46 -5 14 -5 39 -1 55 l7 31 6 -40 c4
-31 10 -41 27 -43z m147 44 c-3 -9 -10 -16 -15 -16 -6 0 -5 9 1 21 13 24 24
20 14 -5z m-1414 4 c0 -5 -8 -10 -17 -10 -15 0 -16 2 -3 10 19 12 20 12 20 0z
m80 -10 c0 -5 -4 -10 -9 -10 -6 0 -13 5 -16 10 -3 6 1 10 9 10 9 0 16 -4 16
-10z m-124 -9 c-4 -5 0 -12 6 -14 7 -3 3 -6 -10 -6 -37 -1 -23 -32 26 -59 l42
-23 12 25 c15 34 30 33 22 -1 -6 -22 -2 -31 22 -50 26 -21 27 -23 8 -23 -12 0
-33 9 -47 20 -14 11 -30 20 -35 20 -5 0 -15 7 -22 15 -7 8 -16 13 -20 10 -3
-2 -16 3 -28 11 -29 20 -28 58 1 72 28 14 29 14 23 3z m349 -1 c-3 -5 -13 -10
-21 -10 -8 0 -14 5 -14 10 0 6 9 10 21 10 11 0 17 -4 14 -10z m70 -11 c11 -17
-1 -21 -15 -4 -8 9 -8 15 -2 15 6 0 14 -5 17 -11z m443 -19 c-13 -20 -38 -35
-38 -23 0 10 32 43 42 43 4 0 3 -9 -4 -20z m75 -31 c30 0 31 -1 10 -11 -39
-19 -75 11 -57 50 6 14 8 12 12 -10 3 -24 8 -28 35 -29z m-388 31 c3 -5 2 -10
-4 -10 -5 0 -13 5 -16 10 -3 6 -2 10 4 10 5 0 13 -4 16 -10z m516 -27 c-8 -15
-10 -15 -11 -2 0 17 10 32 18 25 2 -3 -1 -13 -7 -23z m-71 -20 c-11 -17 -11
-17 -6 0 3 10 6 24 7 30 0 9 2 9 5 0 3 -7 0 -20 -6 -30z m180 19 c0 -5 -7 -17
-16 -28 -8 -10 -14 -14 -11 -9 2 6 7 18 10 28 7 17 17 23 17 9z m-660 -12 c0
-5 -8 -10 -17 -10 -15 0 -16 2 -3 10 19 12 20 12 20 0z m84 -5 c-10 -8 -23
-15 -28 -15 -6 0 -1 7 10 15 10 8 23 15 28 15 6 0 1 -7 -10 -15z m101 -15 c-8
-13 -35 -13 -55 0 -11 7 -5 10 23 10 23 0 36 -4 32 -10z m98 3 c-7 -2 -19 -2
-25 0 -7 3 -2 5 12 5 14 0 19 -2 13 -5z m-306 -9 c-3 -3 -12 -4 -19 -1 -8 3
-5 6 6 6 11 1 17 -2 13 -5z m543 -10 c0 -2 -7 -4 -15 -4 -8 0 -15 4 -15 10 0
5 7 7 15 4 8 -4 15 -8 15 -10z m-646 -10 c11 -28 7 -43 -15 -54 -36 -20 -66
-21 -80 -3 -13 15 -11 16 10 10 26 -6 71 11 71 28 0 6 -5 16 -12 23 -9 9 -8
12 4 12 9 0 19 -7 22 -16z m356 6 c-8 -5 -26 -9 -40 -9 -23 1 -23 2 5 9 43 11
52 11 35 0z m306 -35 c-9 -14 -24 -25 -33 -25 -11 0 -8 6 11 21 14 11 26 28
27 37 0 11 2 13 6 4 3 -7 -2 -24 -11 -37z m-536 27 c0 -12 -35 -30 -73 -37
-32 -6 -35 -5 -30 13 4 15 15 22 42 25 20 2 42 4 49 5 6 1 12 -1 12 -6z m160
-1 c0 -5 3 -17 7 -27 4 -11 3 -15 -4 -11 -14 9 -24 47 -12 47 5 0 9 -4 9 -9z
m245 -11 c-3 -5 -14 -10 -23 -9 -14 0 -13 2 3 9 27 11 27 11 20 0z m41 -7 c5
3 16 -2 24 -11 13 -14 12 -15 -3 -9 -11 4 -20 0 -27 -13 -6 -11 -26 -22 -48
-25 -20 -4 -46 -9 -57 -12 -17 -5 -18 -4 -7 10 8 9 32 17 55 19 40 3 42 5 40
33 -2 20 0 25 6 16 5 -7 13 -11 17 -8z m-334 -7 c28 15 29 15 18 -5 -17 -33
-80 -22 -80 13 0 6 7 3 17 -6 15 -15 19 -15 45 -2z m93 -16 c-3 -5 -12 -10
-18 -10 -7 0 -6 4 3 10 19 12 23 12 15 0z m103 -11 c-9 -5 -23 -16 -31 -24
-11 -10 -17 -11 -26 -2 -15 15 -14 24 5 31 8 3 12 2 9 -4 -9 -15 8 -12 31 4
10 8 21 12 24 9 3 -2 -3 -9 -12 -14z m-173 -47 c-8 -9 -35 20 -28 31 4 6 11 3
19 -8 8 -10 12 -21 9 -23z"/>
<path d="M653 955 c-19 -21 -16 -27 7 -13 11 7 20 16 20 20 0 12 -14 9 -27 -7z"/>
<path d="M600 919 c0 -5 5 -7 10 -4 6 3 10 8 10 11 0 2 -4 4 -10 4 -5 0 -10
-5 -10 -11z"/>
<path d="M668 913 c6 -2 12 -8 12 -13 0 -13 -38 -18 -51 -6 -11 9 -11 8 0 -6
10 -14 9 -17 -6 -21 -16 -4 -16 -5 -1 -6 9 0 20 4 23 9 8 13 65 13 65 -1 0 -5
-17 -17 -37 -26 -21 -9 -32 -18 -26 -20 7 -3 23 3 35 11 12 9 30 16 40 16 10
0 18 3 18 8 -1 13 -27 42 -39 42 -6 0 -11 5 -11 10 0 6 -8 10 -17 9 -11 0 -13
-3 -5 -6z"/>
<path d="M503 1363 c-9 -3 -7 -11 7 -26 15 -16 23 -18 32 -9 8 8 8 15 -2 27
-13 16 -17 17 -37 8z m27 -13 c0 -5 -2 -10 -4 -10 -3 0 -8 5 -11 10 -3 6 -1
10 4 10 6 0 11 -4 11 -10z"/>
<path d="M1461 1350 c-16 -14 -38 -20 -75 -20 -33 0 -46 -3 -37 -9 7 -5 10
-14 7 -20 -4 -6 -12 -9 -17 -6 -5 3 -6 -1 -3 -9 3 -9 13 -16 21 -16 8 0 12 4
8 10 -3 5 5 16 17 24 31 19 104 30 113 17 10 -16 25 -13 25 5 0 12 3 14 13 6
10 -8 13 -6 13 8 0 10 -4 17 -7 14 -4 -2 -10 0 -14 6 -10 16 -38 11 -64 -10z"/>
<path d="M1306 1338 c3 -4 11 -5 19 -1 21 7 19 12 -4 10 -11 0 -18 -5 -15 -9z"/>
<path d="M1220 1330 c0 -5 5 -10 10 -10 6 0 10 5 10 10 0 6 -4 10 -10 10 -5 0
-10 -4 -10 -10z"/>
<path d="M1680 1336 c0 -2 7 -7 16 -10 8 -3 12 -2 9 4 -6 10 -25 14 -25 6z"/>
<path d="M1551 1307 c-13 -21 -12 -21 5 -5 10 10 16 20 13 22 -3 3 -11 -5 -18
-17z"/>
<path d="M1130 1310 c0 -5 5 -10 11 -10 5 0 7 5 4 10 -3 6 -8 10 -11 10 -2 0
-4 -4 -4 -10z"/>
<path d="M1280 1310 c8 -5 20 -10 25 -10 6 0 3 5 -5 10 -8 5 -19 10 -25 10 -5
0 -3 -5 5 -10z"/>
<path d="M1661 1301 c-1 -13 -9 -30 -18 -37 -17 -13 -17 -13 -1 -14 18 0 34
39 25 62 -3 7 -6 2 -6 -11z"/>
<path d="M1182 1290 c0 -14 2 -19 5 -12 2 6 2 18 0 25 -3 6 -5 1 -5 -13z"/>
<path d="M400 1275 c-13 -14 -19 -25 -14 -25 8 1 50 50 41 50 -2 0 -14 -11
-27 -25z"/>
<path d="M953 1282 c-28 -4 -31 -21 -3 -19 11 1 20 5 20 9 0 4 7 5 15 2 8 -4
15 -4 15 -1 0 8 -24 13 -47 9z"/>
<path d="M1479 1272 c7 -13 19 -26 27 -29 8 -3 14 -11 14 -18 0 -17 27 -38 40
-30 7 4 6 10 -3 18 -7 7 -30 28 -51 47 -30 27 -36 30 -27 12z"/>
<path d="M1776 1260 c-13 -27 -13 -34 -2 -46 8 -7 16 -10 20 -7 3 4 6 -1 6 -9
0 -9 7 -19 16 -22 22 -9 24 -8 24 9 0 8 -4 15 -8 15 -4 0 -9 12 -10 26 -1 14
-8 34 -16 45 -13 20 -14 19 -30 -11z"/>
<path d="M1406 1266 c3 -9 11 -16 16 -16 13 0 5 23 -10 28 -7 2 -10 -2 -6 -12z"/>
<path d="M1715 1269 c-11 -17 1 -21 15 -4 8 9 8 15 2 15 -6 0 -14 -5 -17 -11z"/>
<path d="M883 1263 c4 -3 2 -12 -4 -20 -13 -15 -1 -17 20 -4 15 9 7 31 -11 31
-6 0 -8 -3 -5 -7z"/>
<path d="M1169 1248 c6 -17 6 -29 -1 -36 -6 -6 -6 -12 2 -17 7 -4 19 0 28 9
11 10 12 16 4 16 -7 0 -12 6 -12 14 0 7 -7 19 -15 26 -14 11 -14 10 -6 -12z"/>
<path d="M1276 1254 c-9 -23 -8 -24 12 -24 26 0 34 11 21 27 -15 17 -26 17
-33 -3z"/>
<path d="M1525 1260 c3 -5 10 -10 16 -10 5 0 9 5 9 10 0 6 -7 10 -16 10 -8 0
-12 -4 -9 -10z"/>
<path d="M2035 1259 c-11 -16 23 -47 63 -56 37 -9 59 -43 28 -43 -12 0 -9 -13
14 -63 52 -110 59 -215 19 -289 -12 -22 3 -49 15 -29 11 16 24 13 29 -6 3 -13
11 -3 26 31 20 41 22 61 19 140 -4 114 -27 164 -118 259 -65 66 -83 77 -95 56z
m166 -166 c12 -15 12 -16 -4 -10 -10 4 -25 7 -33 7 -8 0 -14 5 -14 10 0 16 36
11 51 -7z"/>
<path d="M1387 1241 c3 -12 9 -21 14 -21 14 0 11 16 -5 29 -12 10 -13 8 -9 -8z"/>
<path d="M985 1240 c-3 -5 -1 -10 4 -10 6 0 11 5 11 10 0 6 -2 10 -4 10 -3 0
-8 -4 -11 -10z"/>
<path d="M1068 1243 c6 -2 18 -2 25 0 6 3 1 5 -13 5 -14 0 -19 -2 -12 -5z"/>
<path d="M1586 1236 c7 -19 48 -22 42 -3 -3 6 -14 13 -26 15 -16 3 -20 -1 -16
-12z"/>
<path d="M320 1220 c-13 -11 -19 -20 -13 -20 5 0 18 9 28 20 10 11 16 20 13
20 -3 0 -15 -9 -28 -20z"/>
<path d="M745 1230 c3 -5 14 -10 23 -10 15 0 15 2 2 10 -20 13 -33 13 -25 0z"/>
<path d="M1020 1226 c0 -9 7 -19 15 -23 25 -9 27 2 5 22 -18 17 -20 17 -20 1z"/>
<path d="M1237 1226 c-3 -8 -2 -18 3 -21 13 -8 20 9 11 24 -6 10 -10 9 -14 -3z"/>
<path d="M1655 1230 c-3 -6 1 -7 9 -4 18 7 21 14 7 14 -6 0 -13 -4 -16 -10z"/>
<path d="M1725 1230 c3 -5 8 -10 11 -10 2 0 4 5 4 10 0 6 -5 10 -11 10 -5 0
-7 -4 -4 -10z"/>
<path d="M912 1221 c2 -7 7 -12 11 -12 12 1 9 15 -3 20 -7 2 -11 -2 -8 -8z"/>
<path d="M1086 1215 c-3 -9 0 -15 10 -15 8 0 25 -12 38 -27 13 -15 28 -23 34
-19 20 12 13 24 -10 20 -13 -2 -17 -2 -10 2 20 9 14 22 -18 39 -36 19 -37 19
-44 0z"/>
<path d="M1334 1212 c-9 -14 -8 -22 2 -37 14 -18 14 -18 14 2 0 12 5 25 10 28
14 9 12 25 -3 25 -7 0 -17 -8 -23 -18z"/>
<path d="M1671 1216 l-23 -13 23 -6 c36 -10 39 -9 39 13 0 23 -6 24 -39 6z"/>
<path d="M1404 1212 c-7 -4 1 -13 22 -24 l33 -17 -11 24 c-11 26 -24 30 -44
17z"/>
<path d="M824 1202 c-8 -5 -5 -13 7 -26 12 -12 19 -14 19 -7 0 20 64 9 68 -12
3 -15 0 -16 -22 -6 -14 7 -28 10 -30 8 -10 -11 -15 -45 -7 -57 9 -16 41 -5 41
14 0 21 18 17 25 -5 3 -11 13 -22 22 -25 14 -6 14 -4 2 10 -13 16 -11 17 23
10 l38 -7 -26 26 c-14 14 -29 23 -34 20 -4 -3 -18 11 -30 30 -17 28 -28 35
-53 35 -18 0 -37 -4 -43 -8z"/>
<path d="M690 1187 c0 -19 -47 -57 -70 -57 -14 0 -20 -7 -20 -22 0 -17 3 -19
12 -10 7 7 24 12 40 12 21 0 26 4 21 17 -5 12 -2 15 10 10 12 -5 17 -1 17 13
0 26 16 26 32 0 10 -15 24 -20 56 -20 31 0 42 4 39 13 -2 6 -20 12 -40 12 -36
0 -47 8 -27 20 6 4 8 11 4 16 -4 7 -10 7 -18 0 -7 -6 -17 -6 -26 -1 -21 13
-30 12 -30 -3z"/>
<path d="M947 1193 c-12 -11 -8 -23 8 -23 8 0 24 -9 35 -20 25 -25 40 -26 40
-1 0 30 -64 64 -83 44z"/>
<path d="M1479 1182 c16 -30 14 -32 -19 -32 -17 0 -34 7 -40 18 -9 14 -10 12
-5 -10 4 -20 1 -28 -9 -28 -7 0 -19 -6 -25 -14 -18 -22 4 -29 32 -11 14 9 32
13 43 9 18 -6 17 -5 -1 9 -11 9 -15 16 -10 17 14 0 75 -37 103 -63 14 -13 26
-17 31 -11 6 5 -14 34 -51 73 -33 35 -55 55 -49 43z"/>
<path d="M1618 1193 c7 -3 16 -2 19 1 4 3 -2 6 -13 5 -11 0 -14 -3 -6 -6z"/>
<path d="M1206 1177 c3 -8 1 -18 -5 -22 -20 -12 -11 -22 18 -21 15 1 34 7 41
15 12 12 10 13 -12 9 -18 -3 -25 -1 -24 10 0 8 -5 17 -12 19 -7 3 -10 -1 -6
-10z"/>
<path d="M1561 1181 c-9 -6 -10 -11 -2 -15 6 -4 15 -5 20 -1 5 3 12 1 16 -5 3
-5 12 -10 18 -10 7 0 4 5 -6 11 -9 6 -15 14 -12 20 8 11 -15 12 -34 0z"/>
<path d="M370 1169 c0 -5 5 -7 10 -4 6 3 10 8 10 11 0 2 -4 4 -10 4 -5 0 -10
-5 -10 -11z"/>
<path d="M1048 1175 c-12 -12 5 -45 22 -45 10 0 24 -2 32 -3 7 -2 10 -2 7 0
-4 2 -5 13 -2 23 4 14 0 20 -10 20 -8 0 -22 2 -29 5 -8 3 -17 3 -20 0z"/>
<path d="M1370 1165 c0 -9 6 -12 15 -9 8 4 15 7 15 9 0 2 -7 5 -15 9 -9 3 -15
0 -15 -9z"/>
<path d="M1733 1166 c0 -6 -3 -21 -7 -33 -9 -28 18 -32 33 -5 9 15 13 14 36
-13 15 -16 23 -24 19 -16 -4 7 -7 23 -8 35 -1 14 -9 22 -23 24 -13 2 -23 7
-23 11 0 4 -6 8 -13 8 -8 0 -14 -5 -14 -11z"/>
<path d="M274 1155 c-3 -8 -3 -19 1 -25 9 -14 45 6 45 25 0 19 -39 19 -46 0z"/>
<path d="M1290 1163 c0 -14 33 -34 51 -31 18 2 16 6 -15 19 -20 9 -36 15 -36
12z"/>
<path d="M1639 1158 c12 -16 11 -18 -5 -18 -14 0 -15 -3 -6 -12 7 -7 12 -20
12 -29 0 -10 9 -21 20 -24 11 -4 18 -10 15 -15 -3 -4 3 -7 12 -6 14 2 18 13
18 49 0 55 -8 60 -22 15 l-11 -33 -7 32 c-4 18 -15 38 -24 45 -14 12 -14 11
-2 -4z"/>
<path d="M1856 1145 c-20 -19 -25 -29 -18 -42 5 -10 7 -26 3 -35 -6 -15 -9
-15 -45 3 -52 25 -66 24 -66 -6 0 -32 36 -54 44 -27 4 10 13 19 22 19 8 0 13
-6 10 -14 -3 -8 2 -13 12 -13 26 0 43 15 37 32 -4 10 2 22 14 30 22 16 38 63
23 72 -5 3 -21 -5 -36 -19z"/>
<path d="M1550 1144 c1 -5 10 -20 21 -33 17 -21 22 -22 30 -10 12 19 11 25 -6
39 -10 9 -15 9 -15 1 0 -6 5 -11 11 -11 5 0 7 -5 3 -12 -5 -8 -13 -4 -26 11
-10 13 -18 19 -18 15z"/>
<path d="M1265 1131 c-3 -6 -4 -11 0 -11 3 0 1 -9 -5 -20 -6 -11 -26 -22 -46
-26 -34 -6 -35 -7 -12 -18 29 -15 73 -9 58 8 -11 14 6 36 28 36 16 0 12 32 -5
37 -6 2 -14 -1 -18 -6z"/>
<path d="M545 1110 c3 -5 11 -10 16 -10 6 0 7 5 4 10 -3 6 -11 10 -16 10 -6 0
-7 -4 -4 -10z"/>
<path d="M1205 1110 c3 -5 8 -10 11 -10 2 0 4 5 4 10 0 6 -5 10 -11 10 -5 0
-7 -4 -4 -10z"/>
<path d="M52 1073 c-24 -54 -23 -176 2 -228 31 -63 36 -68 57 -49 11 9 26 14
36 10 16 -5 16 -5 -1 9 -10 8 -23 16 -28 17 -4 2 -10 13 -13 26 -5 29 -15 43
-24 37 -13 -8 -31 43 -31 89 0 24 7 62 15 85 18 51 10 54 -13 4z"/>
<path d="M1180 1100 c0 -5 5 -10 11 -10 5 0 7 5 4 10 -3 6 -8 10 -11 10 -2 0
-4 -4 -4 -10z"/>
<path d="M1010 1090 c-12 -8 -12 -10 2 -15 20 -8 41 2 33 16 -8 11 -16 11 -35
-1z"/>
<path d="M1465 1091 c-2 -5 4 -16 15 -26 11 -10 20 -13 20 -7 0 6 8 12 18 14
12 3 8 7 -15 15 -18 7 -35 8 -38 4z"/>
<path d="M2016 1083 c-6 -14 -5 -15 5 -6 7 7 10 15 7 18 -3 3 -9 -2 -12 -12z"/>
<path d="M273 1083 c-25 -5 -29 -19 -13 -43 8 -12 10 -10 10 8 0 13 4 21 9 18
5 -3 14 1 21 9 7 8 9 14 4 14 -5 -1 -19 -4 -31 -6z"/>
<path d="M510 1080 c0 -5 5 -10 10 -10 6 0 10 5 10 10 0 6 -4 10 -10 10 -5 0
-10 -4 -10 -10z"/>
<path d="M1306 1078 c-14 -42 -15 -48 -3 -48 7 0 22 7 35 15 16 12 27 13 41 5
26 -14 31 -13 25 4 -3 9 -12 12 -21 9 -12 -5 -14 -3 -8 7 5 8 4 11 -3 6 -6 -3
-13 -2 -17 4 -3 5 -11 10 -16 10 -6 0 -7 -4 -4 -10 3 -5 2 -10 -4 -10 -5 0
-11 6 -14 13 -3 8 -7 6 -11 -5z"/>
<path d="M540 1076 c0 -2 7 -7 16 -10 8 -3 12 -2 9 4 -6 10 -25 14 -25 6z"/>
<path d="M1425 1060 c18 -20 45 -27 45 -12 0 8 -43 32 -57 32 -3 0 2 -9 12
-20z"/>
<path d="M400 1056 c0 -9 -4 -15 -9 -12 -5 4 -11 0 -14 -6 -3 -10 -8 -10 -21
1 -15 13 -19 13 -26 1 -5 -8 -7 -17 -4 -21 5 -8 73 -8 72 0 -1 4 2 14 7 24 4
10 5 21 1 24 -3 4 -6 -1 -6 -11z"/>
<path d="M441 1051 c-1 -8 -8 -23 -18 -33 -9 -10 -11 -18 -5 -18 15 0 35 38
28 53 -3 8 -5 7 -5 -2z"/>
<path d="M476 1049 c2 -4 0 -10 -6 -14 -18 -11 -11 -23 10 -18 23 6 27 40 5
40 -8 0 -12 -4 -9 -8z"/>
<path d="M1535 1052 c-14 -10 -17 -32 -5 -32 6 0 10 5 10 11 0 5 5 7 10 4 6
-3 10 -2 10 4 0 14 -14 21 -25 13z"/>
<path d="M1985 1049 c-4 -6 -5 -12 -2 -15 2 -3 7 2 10 11 7 17 1 20 -8 4z"/>
<path d="M1640 1046 c0 -2 7 -9 15 -16 9 -7 15 -8 15 -2 0 5 -7 12 -15 16 -8
3 -15 4 -15 2z"/>
<path d="M1486 1024 c-4 -9 -4 -19 -1 -22 2 -3 7 3 11 12 4 9 4 19 1 22 -2 3
-7 -3 -11 -12z"/>
<path d="M1368 1023 c6 -2 18 -2 25 0 6 3 1 5 -13 5 -14 0 -19 -2 -12 -5z"/>
<path d="M1440 1026 c0 -2 7 -9 15 -16 12 -10 15 -10 15 4 0 9 -7 16 -15 16
-8 0 -15 -2 -15 -4z"/>
<path d="M1706 1021 c-4 -5 -2 -12 3 -15 5 -4 12 -2 15 3 4 5 2 12 -3 15 -5 4
-12 2 -15 -3z"/>
<path d="M1331 1010 c-8 -4 -10 -17 -6 -33 4 -15 11 -24 16 -21 5 3 13 -6 19
-20 9 -25 43 -36 54 -17 18 29 -54 109 -83 91z"/>
<path d="M1941 1004 c0 -11 3 -14 6 -6 3 7 2 16 -1 19 -3 4 -6 -2 -5 -13z"/>
<path d="M1410 999 c0 -8 10 -27 21 -44 12 -16 19 -23 16 -14 -4 11 0 16 11
15 23 -1 27 30 5 37 -10 2 -26 8 -35 12 -12 5 -18 3 -18 -6z"/>
<path d="M1985 1000 c-3 -5 -4 -10 -1 -10 2 0 11 -3 20 -6 11 -4 16 -1 16 10
0 18 -25 22 -35 6z"/>
<path d="M236 964 c-18 -18 -20 -24 -6 -24 5 0 14 9 20 20 13 24 7 26 -14 4z"/>
<path d="M1920 948 c-18 -30 -18 -33 -3 -42 12 -6 18 -5 21 4 4 10 6 9 13 -1
6 -10 9 -8 9 9 0 15 -4 21 -11 16 -9 -5 -10 1 -5 20 9 35 0 33 -24 -6z"/>
<path d="M2005 960 c-3 -5 1 -10 9 -10 9 0 16 5 16 10 0 6 -4 10 -9 10 -6 0
-13 -4 -16 -10z"/>
<path d="M2090 955 c0 -8 7 -15 15 -15 8 0 15 7 15 15 0 8 -7 15 -15 15 -8 0
-15 -7 -15 -15z"/>
<path d="M1160 911 c0 -31 18 -61 35 -61 9 0 15 9 14 23 0 12 -3 16 -6 10 -7
-20 -22 -15 -16 5 2 10 -3 24 -11 31 -14 12 -16 10 -16 -8z"/>
<path d="M0 837 c0 -38 47 -113 117 -187 44 -46 42 -56 -7 -24 -22 15 -37 31
-33 37 3 6 1 7 -5 3 -7 -4 -24 11 -42 35 l-30 42 1 -119 1 -119 34 -37 c42
-47 74 -109 74 -145 0 -40 -33 -99 -74 -135 -36 -30 -36 -31 -36 -109 l0 -79
41 0 c28 0 51 8 73 25 35 26 61 32 71 15 3 -5 0 -10 -8 -10 -8 0 -19 -6 -25
-12 -8 -10 0 -13 36 -12 31 0 47 5 50 15 3 11 2 11 -7 -1 -9 -13 -12 -11 -17
8 -4 15 -17 25 -36 29 -15 3 -31 10 -34 14 -8 14 -24 10 -24 -6 0 -8 -4 -15
-9 -15 -10 0 -18 79 -13 117 3 19 8 21 40 18 20 -2 41 -4 45 -4 4 -1 15 -17
23 -36 11 -27 20 -35 39 -35 18 0 23 4 19 15 -9 21 18 19 77 -6 32 -14 47 -25
41 -31 -12 -12 -78 -14 -112 -3 l-25 8 23 -22 c12 -12 22 -33 22 -46 0 -32 9
-31 35 0 11 14 36 28 55 32 32 6 34 5 21 -10 -7 -9 -23 -17 -35 -17 -19 -1
-18 -2 7 -16 26 -14 29 -14 47 8 l20 23 19 -22 c17 -21 28 -23 115 -23 82 0
96 2 96 16 0 13 6 15 33 9 63 -15 117 -17 571 -21 444 -4 460 -3 491 16 34 21
71 25 94 11 14 -9 59 15 86 45 5 6 20 14 33 17 18 4 22 1 22 -19 0 -15 -6 -24
-15 -24 -17 0 -20 -26 -4 -35 15 -10 36 24 31 50 -2 14 4 30 15 41 11 11 23
27 26 36 3 10 17 20 30 23 18 5 30 22 47 63 13 31 27 61 32 67 10 11 -40 -136
-52 -150 -4 -5 -11 -40 -15 -78 l-7 -67 39 0 c36 0 40 3 65 53 15 28 32 70 37
92 24 104 25 95 -11 90 -30 -5 -31 -5 -10 6 12 7 22 18 22 26 0 7 5 13 10 13
6 0 10 87 10 243 0 240 -1 242 -19 217 -11 -13 -17 -29 -14 -34 3 -5 2 -6 -4
-3 -5 3 -25 -10 -44 -29 -284 -297 -1030 -403 -1609 -228 -261 79 -430 191
-524 348 -20 33 -36 52 -36 43z m75 -347 c-3 -5 -11 -10 -16 -10 -6 0 -7 5 -4
10 3 6 11 10 16 10 6 0 7 -4 4 -10z m2127 -232 c-9 -9 -12 -7 -12 12 0 19 3
21 12 12 9 -9 9 -15 0 -24z m-2015 -20 c41 -26 61 -44 51 -46 -25 -5 -88 25
-88 42 0 9 -9 16 -20 16 -11 0 -20 7 -20 15 0 21 0 20 77 -27z m359 -159 c32
-11 67 -23 77 -26 19 -6 23 -28 7 -38 -6 -4 -16 -2 -23 3 -7 5 -30 12 -52 15
-70 8 -131 39 -119 59 9 13 48 9 110 -13z"/>
<path d="M106 774 c-11 -28 111 -135 215 -189 50 -26 92 -45 94 -43 2 1 5 12
7 22 2 15 -12 28 -62 56 -36 21 -86 56 -112 79 -25 22 -55 41 -66 41 -27 0
-77 27 -61 32 9 3 10 6 2 11 -6 4 -14 0 -17 -9z"/>
<path d="M1841 556 c-7 -8 -20 -14 -29 -13 -9 0 -38 -7 -65 -18 -36 -13 -45
-21 -37 -30 8 -9 7 -15 -2 -19 -26 -12 46 6 76 19 l31 13 -30 2 -30 1 25 13
c16 10 30 11 42 5 21 -11 39 -11 57 0 12 8 12 12 2 25 -17 20 -25 20 -40 2z"/>
<path d="M466 531 c-7 -11 14 -20 32 -14 6 3 12 9 12 14 0 12 -37 12 -44 0z"/>
<path d="M525 522 c6 -6 24 -13 40 -17 21 -4 25 -3 15 3 -24 15 -67 26 -55 14z"/>
<path d="M1675 505 c-5 -2 -29 -9 -52 -15 -32 -8 -43 -16 -43 -30 0 -23 16
-25 71 -8 31 9 39 16 39 35 0 12 -1 23 -2 22 -2 0 -7 -2 -13 -4z"/>
<path d="M597 493 c-13 -12 -7 -21 21 -27 15 -3 37 -8 50 -12 35 -10 24 18
-13 33 -36 14 -49 15 -58 6z"/>
<path d="M740 461 c-8 -5 -19 -7 -25 -4 -7 4 -6 2 1 -6 15 -16 157 -39 327
-53 124 -9 150 -9 157 2 5 8 7 17 4 21 -2 4 -61 10 -131 14 -122 6 -249 19
-296 30 -12 3 -29 1 -37 -4z"/>
<path d="M1 424 c0 -11 3 -14 6 -6 3 7 2 16 -1 19 -3 4 -6 -2 -5 -13z"/>
<path d="M21 404 c0 -11 3 -14 6 -6 3 7 2 16 -1 19 -3 4 -6 -2 -5 -13z"/>
<path d="M41 374 c0 -11 3 -14 6 -6 3 7 2 16 -1 19 -3 4 -6 -2 -5 -13z"/>
<path d="M0 330 c0 -54 8 -65 12 -17 1 14 6 23 10 21 15 -9 8 23 -7 36 -13 11
-15 5 -15 -40z"/>
<path d="M20 300 c0 -11 5 -20 10 -20 6 0 10 9 10 20 0 11 -4 20 -10 20 -5 0
-10 -9 -10 -20z"/>
<path d="M25 260 c-4 -6 -11 -8 -16 -5 -13 8 -11 -37 2 -55 9 -13 10 -13 6 2
-4 10 1 18 14 21 11 3 19 14 19 26 0 22 -14 28 -25 11z"/>
<path d="M2031 23 c-1 -18 4 -23 24 -23 17 0 25 5 24 18 0 10 -3 12 -6 5 -7
-19 -31 -16 -36 5 -4 13 -5 11 -6 -5z"/>
<path d="M1795 10 c-4 -6 7 -10 25 -10 18 0 29 4 25 10 -3 6 -15 10 -25 10
-10 0 -22 -4 -25 -10z"/>
</g>
</svg>
